# xmcd
#
# Track frame offsets: 
#        150
#        56061
#        87202
#        102366
#        136448
#        190712
#        235878
#        273773
#
# Disc length: 4753 seconds
#
# Revision: 1
# Processed by: cddbd v1.5.2PL0 Copyright (c) Steve Scherf et al.
# Submitted via: ExactAudioCopy v1.0b1
#
DISCID=67128f08
DTITLE=Various Artist - Shibuya Jazz Classics ~ Nobukazu Takemura Collection 
DTITLE=~ Three Blind Mice Issue CD1
DYEAR=2005
DGENRE=Jazz
TTITLE0=Naosuke Miyamoto Sextet - One For Trane
TTITLE1=Allan Praskin Quartet - Encounter
TTITLE2=Masayuki "Jojo" Takayanagi - Sketches
TTITLE3=Kosuke Mine Quartet - Be Still, My Soul
TTITLE4=Hideo Ichikawa Trio - Tomorrow
TTITLE5=Hideo Kanai Group - Q
TTITLE6=Sunao Wada Quitet+1 - Ambushin' The Blues
TTITLE7=Motohiko Hino Quartet+1 - New Moon
EXTD=YEAR: 2005
EXTT0=
EXTT1=
EXTT2=
EXTT3=
EXTT4=
EXTT5=
EXTT6=
EXTT7=
PLAYORDER=
